<?xml version="1.0" encoding="UTF-8" standalone="no"?>
<svg
   id="svg1"
   width="128"
   height="128"
   version="1.1"
   viewBox="0 0 128 128"
   sodipodi:docname="favicon.svg"
   inkscape:version="1.4 (e7c3feb1, 2024-10-09)"
   xmlns:inkscape="http://www.inkscape.org/namespaces/inkscape"
   xmlns:sodipodi="http://sodipodi.sourceforge.net/DTD/sodipodi-0.dtd"
   xmlns="http://www.w3.org/2000/svg"
   xmlns:svg="http://www.w3.org/2000/svg">
  <!-- Generator: Adobe Illustrator 29.6.1, SVG Export Plug-In . SVG Version: 2.1.1 Build 9)  -->
  <defs
     id="defs1">
    <style
       id="style1">
      .st0 {
        fill: #a2e7ff;
      }

      .st1 {
        fill: #fff;
      }

      .st2 {
        fill: #bf0;
      }
    </style>
  </defs>
  <sodipodi:namedview
     id="namedview1"
     bordercolor="#000000"
     borderopacity="0.25"
     inkscape:current-layer="svg1"
     inkscape:cx="41.787588"
     inkscape:cy="89.460752"
     inkscape:deskcolor="#d1d1d1"
     inkscape:pagecheckerboard="0"
     inkscape:pageopacity="0.0"
     inkscape:showpageshadow="2"
     inkscape:window-height="1027"
     inkscape:window-maximized="1"
     inkscape:window-width="1920"
     inkscape:window-x="0"
     inkscape:window-y="25"
     inkscape:zoom="2.5486037"
     pagecolor="#ffffff"
     showgrid="false" />
  <g
     id="g7">
    <g
       id="g6"
       transform="matrix(1.1546039,0,0,1.2080183,-19.295071,-26.357485)">
      <path
         class="st2"
         d="m 51.3,104.6 c 4.1,-0.8 8.3,-1.9 11.8,-4.2 3.5,-2.2 5.8,-5.5 8.2,-8.8 2.5,-3.4 5.3,-6.4 9,-8.7 3.5,-2.1 7.3,-3.4 11.1,-4.6 3.8,-1.2 7.7,-2.4 11.3,-4.2 3.2,-1.6 6.1,-3.8 8.3,-6.6 -4.9,-3.7 -9,-8.6 -10.7,-14.6 -1.3,-4.7 -0.8,-10 1.7,-14.3 -0.2,-0.2 -0.5,-0.3 -0.7,-0.5 -2.8,-1.9 -5.8,-3.8 -9.2,-3.7 -1.8,0 -3.9,0.9 -4.4,2.7 -0.5,1.6 0.4,3.3 0.6,5 0.3,2.5 -1,5.1 -2.9,6.8 -1.9,1.7 -4.3,2.7 -6.8,3.4 -6.4,2 -13.5,2.3 -20.2,1.3 0.4,-1.5 0.7,-3.1 0.2,-4.6 -0.5,-1.5 -2.2,-2.6 -3.6,-2 -0.8,0.4 -1.3,1.2 -1.7,2 -1.6,3.4 -2.7,6.9 -3.6,10.6 2,0.2 3.9,0.8 5.8,1.1 0.9,0.1 1.6,0.9 1.5,1.9 0,0.9 -1,1.6 -1.9,1.5 -1.4,-0.2 -2.8,-0.6 -4.1,-0.8 -0.7,-0.1 -1.4,-0.2 -2.1,-0.3 -0.3,1.6 -0.6,3.2 -0.9,4.8 0,0.1 0,0.2 0,0.3 1.9,0.1 3.8,0.7 5.7,0.8 0.9,0 1.6,1 1.5,1.9 0,0.9 -1,1.6 -1.9,1.5 -1.3,-0.1 -2.6,-0.4 -3.9,-0.6 -0.7,-0.1 -1.3,-0.2 -2,-0.2 h -0.1 c -0.3,1.4 -0.5,2.7 -0.8,4 1.9,0.2 3.7,0.5 5.6,0.6 1,0 1.6,1 1.5,1.9 0,0.9 -1,1.6 -1.9,1.5 -2,-0.1 -4,-0.4 -6.1,-0.7 -0.7,2.7 -1.5,5.3 -2.6,7.8 -2.6,6 -6.9,11.4 -12.9,14 -1.9,0.8 -3.9,1.3 -5.6,2.3 7.9,4.5 17.8,3.5 26.4,1.8 z M 53.2,98 c 2.3,-0.9 4.4,-2 6.3,-3.5 0.9,-0.7 1.9,-1.5 2.7,-2.3 0.8,-0.8 1.6,-1.8 2.3,-2.8 1.5,-1.9 2.9,-4.1 4.6,-6.1 0.9,-1 1.8,-1.9 2.9,-2.7 0.5,-0.4 1.1,-0.8 1.6,-1.2 0.6,-0.3 1.1,-0.7 1.7,-1 2.3,-1.3 4.7,-2.1 7.2,-2.8 2.5,-0.6 5,-1.1 7.5,-1.5 -4.7,1.8 -9.5,3.4 -13.6,6 -2,1.3 -3.9,2.9 -5.3,4.7 -1.5,1.9 -2.9,4 -4.4,6 -0.8,1 -1.6,2 -2.6,3 -0.9,0.9 -2,1.8 -3.1,2.6 -2.2,1.5 -4.6,2.6 -7.1,3.4 -5,1.6 -10.1,1.9 -15.1,1.9 4.9,-1.1 9.9,-2 14.4,-3.9 z"
         id="path4" />
      <path
         class="st2"
         d="m 113.2,64.5 c 2.2,-3.6 3.5,-7.7 3.8,-11.9 -0.9,-1.2 -1.9,-2.4 -2.9,-3.5 -2.7,-3 -5.8,-5.7 -9.1,-8.2 -1.9,3.5 -2.2,7.7 -1.1,11.5 1.4,5 5.1,9.1 9.2,12.2 z"
         id="path5" />
      <path
         class="st2"
         d="m 100.3,85.7 c 4.5,-1.4 8.5,-3.9 11.9,-6.9 h 10.4 l -5.6,-0.9 -3.2,-0.5 -5.4,-0.9 7,-0.8 c 3.3,-3.7 5.5,-7.5 7.3,-12.2 -0.7,-2.1 -1.5,-4.2 -2.6,-6.2 -1.2,5.1 -3.6,10 -7.2,13.8 -2.8,3 -6.1,5.3 -9.9,7 -3.9,1.8 -8.1,2.9 -12.1,4.3 -3.8,1.3 -7.6,2.8 -10.8,5.3 -3.4,2.6 -5.6,6.4 -8.3,9.7 -2.8,3.6 -6.1,6.3 -10.3,8.1 -4.3,1.8 -9.1,2.8 -13.7,3.5 -8.6,1.3 -18,1.2 -25.5,-3.6 -1,1.5 -1.3,3.4 -0.3,4.8 1.8,2.8 5.7,4.2 9,4.7 0.9,0.2 1.9,0.3 2.8,0.3 v 0 c 0,0 89.1,0 89.1,0 L 76.7,112.8 60.8,112 49.1,111.4 66.3,109.9 c 4.7,-2 7.2,-4.3 10.9,-8.3 1.5,-1.6 2.5,-3.6 3.7,-5.3 h 41.9 l -32.7,-3.5 -5.8,-0.6 -3.6,-0.4 -2.4,-0.3 8.2,-1 c 4.5,-3.1 9,-3.1 14,-4.7 z"
         id="path6" />
    </g>
  </g>
</svg>
