<?xml version="1.0" encoding="UTF-8" standalone="no"?>
<svg
   id="svg1"
   width="128"
   height="128"
   version="1.1"
   viewBox="0 0 128 128"
   sodipodi:docname="favicon.svg"
   inkscape:version="1.4.2 (ebf0e940d0, 2025-05-08)"
   xml:space="preserve"
   xmlns:inkscape="http://www.inkscape.org/namespaces/inkscape"
   xmlns:sodipodi="http://sodipodi.sourceforge.net/DTD/sodipodi-0.dtd"
   xmlns="http://www.w3.org/2000/svg"
   xmlns:svg="http://www.w3.org/2000/svg"><!-- Generator: Adobe Illustrator 29.6.1, SVG Export Plug-In . SVG Version: 2.1.1 Build 9)  --><defs
     id="defs1"><style
       id="style1">
      .st0 {
        fill: #a2e7ff;
      }

      .st1 {
        fill: #fff;
      }

      .st2 {
        fill: #bf0;
      }
    </style></defs><sodipodi:namedview
     id="namedview1"
     bordercolor="#000000"
     borderopacity="0.25"
     inkscape:current-layer="svg1"
     inkscape:cx="120.41274"
     inkscape:cy="117.63825"
     inkscape:deskcolor="#d1d1d1"
     inkscape:pagecheckerboard="0"
     inkscape:pageopacity="0.0"
     inkscape:showpageshadow="2"
     inkscape:window-height="1011"
     inkscape:window-maximized="1"
     inkscape:window-width="1920"
     inkscape:window-x="1920"
     inkscape:window-y="32"
     inkscape:zoom="1.802135"
     pagecolor="#ffffff"
     showgrid="false" /><circle
     style="opacity:0.7;fill:#0d2dff;fill-rule:evenodd;stroke-width:3.87383;paint-order:markers fill stroke;fill-opacity:1"
     id="path1"
     cx="64"
     cy="64"
     r="62" /><path
     style="font-size:85.3336px;line-height:0.4;font-family:'Font Awesome 6 Pro';-inkscape-font-specification:'Font Awesome 6 Pro';letter-spacing:-0.5px;word-spacing:0px;opacity:1;fill:#ffffff;fill-rule:evenodd;stroke-width:4.53543;paint-order:markers fill stroke"
     d="m 50.33329,74.166697 -3.333344,7.833358 c -0.166668,0.500002 -0.666669,0.666669 -1.166671,0.666669 H 33.333236 c -2.333341,0 -4.000013,1.833339 -4.000013,4.000013 0,2.333341 1.666672,4.000012 4.000013,4.000012 h 12.500039 c 3.666679,0 7.000022,-2.166673 8.500027,-5.500017 l 2.333341,-5.33335 -1.666672,-1.000003 C 52.999965,77.666708 51.49996,76.000036 50.33329,74.166697 Z M 74.6667,37.333252 c 4.333347,0 8.000025,-3.50002 8.000025,-8.00003 0,-4.33335 -3.666678,-8.00002 -8.000025,-8.00002 -4.500014,0 -8.000026,3.66667 -8.000026,8.00002 0,4.50001 3.500012,8.00003 8.000026,8.00003 z M 94.666763,61.499991 H 86.50007 c -0.500001,0 -1.16667,-0.333335 -1.333337,-1.000003 l -2.166674,-7.666696 c -1.666672,-5.00001 -5.666684,-8.83336 -10.833367,-10.00003 l -13.000041,-3.00001 c -1.166671,-0.16666 -2.33334,-0.33333 -3.333343,-0.33333 -3.166677,0 -6.333354,1.16667 -9.000029,3.16668 l -8.000025,6.16668 c -1.000003,0.83334 -1.500005,2.00001 -1.500005,3.16668 0,2 1.500005,4.000009 4.000013,4.000009 0.833336,0 1.666672,-0.333329 2.333341,-0.833329 l 8.166691,-6.16669 c 1.166672,-1 2.500009,-1.500011 4.000014,-1.500011 0.5,0 1.000003,0.166671 1.500005,0.166671 l 2.500008,0.5 -5.833352,14.666715 c -0.500002,1.166671 -0.833336,2.333341 -0.833336,3.500011 0,3.166677 1.666672,6.166686 4.500014,8.000027 l 14.000044,8.333359 c 0.500001,0.333335 0.666668,0.833336 0.666668,1.16667 0,0.166667 0,0.333334 0,0.500001 l -5.500017,17.333395 c -0.166668,0.33333 -0.166668,0.66666 -0.166668,1 0,1.33334 1.000004,4.00001 4.000013,4.00001 1.666672,0 3.333344,-1 3.833346,-2.83334 L 80.00005,86.50007 c 0.166668,-0.833336 0.333334,-1.833339 0.333334,-2.666675 0,-3.166677 -1.666672,-6.166687 -4.500014,-8.000026 l -8.666694,-5.166684 7.000022,-17.500054 c 0.500002,0.666671 0.833336,1.33334 1.166671,2.000011 l 2.33334,7.666686 c 1.166671,4.000013 4.666682,6.666688 8.833361,6.666688 h 8.000026 c 2.333341,0 4.16668,-1.833339 4.16668,-4.000013 0,-2.166673 -1.83334,-4.000012 -4.000013,-4.000012 z"
     id="text2"
     aria-label="running" /></svg>
